<?xml version="1.0" standalone="no"?>
<!DOCTYPE svg PUBLIC "-//W3C//DTD SVG 20010904//EN"
 "http://www.w3.org/TR/2001/REC-SVG-20010904/DTD/svg10.dtd">
<svg version="1.0" xmlns="http://www.w3.org/2000/svg"
 width="450.000000pt" height="450.000000pt" viewBox="0 0 450.000000 450.000000"
 preserveAspectRatio="xMidYMid meet">
<metadata>
Created by potrace 1.11, written by Peter Selinger 2001-2013
</metadata>
<g transform="translate(0.000000,450.000000) scale(0.100000,-0.100000)"
fill="#000000" stroke="none">
<path d="M2187 4494 c-1 -1 -47 -4 -102 -8 -55 -3 -116 -9 -135 -12 -142 -22
-255 -45 -335 -70 -99 -31 -250 -88 -270 -101 -11 -7 -27 -13 -35 -13 -9 0
-21 -5 -28 -12 -6 -6 -17 -13 -24 -14 -20 -3 -205 -112 -293 -172 -434 -299
-748 -745 -890 -1265 -54 -201 -70 -331 -70 -582 0 -221 11 -332 49 -500 10
-45 57 -207 66 -230 4 -11 18 -47 31 -80 32 -85 144 -312 174 -351 14 -18 25
-36 25 -39 0 -9 109 -164 133 -190 11 -11 31 -36 45 -55 36 -47 215 -226 277
-275 28 -22 52 -42 55 -45 3 -3 37 -28 75 -56 320 -229 702 -373 1095 -411 93
-10 382 -9 470 1 170 19 410 78 572 142 123 48 378 179 398 205 3 3 16 12 29
19 14 7 30 17 35 21 6 5 45 35 86 66 323 247 592 604 729 968 34 91 88 265 96
310 2 17 7 41 10 55 3 14 8 41 11 60 4 19 8 44 10 55 25 129 24 603 -1 678 -2
7 -6 26 -9 42 -39 248 -154 558 -283 763 -18 29 -33 55 -33 58 0 2 -5 10 -10
17 -12 13 -76 102 -100 137 -8 12 -26 35 -40 50 -14 15 -43 48 -64 74 -45 55
-156 163 -236 231 -69 59 -245 185 -259 185 -5 0 -11 4 -13 8 -1 5 -43 30 -93
57 -49 26 -96 53 -104 59 -8 6 -16 10 -17 9 -2 -2 -28 8 -58 21 -175 77 -428
149 -601 170 -77 9 -362 25 -368 20z m213 -348 c209 -18 412 -69 610 -156 390
-170 735 -497 925 -878 91 -182 155 -379 180 -550 3 -17 7 -47 10 -65 3 -17 8
-81 11 -142 3 -60 6 -112 6 -115 0 -3 0 -7 -1 -10 -1 -3 -4 -43 -7 -90 -3 -47
-6 -98 -8 -115 -9 -76 -19 -131 -27 -151 -4 -12 -5 -24 -2 -27 3 -3 1 -12 -3
-19 -5 -7 -10 -23 -12 -36 -7 -52 -78 -245 -129 -352 -60 -125 -154 -276 -234
-373 -81 -99 -247 -258 -339 -325 -47 -33 -90 -66 -97 -72 -7 -5 -15 -10 -17
-10 -3 0 -29 -15 -58 -34 -70 -44 -273 -141 -318 -151 -8 -2 -41 -13 -72 -24
-32 -11 -101 -29 -153 -41 -188 -40 -266 -48 -460 -44 -161 3 -208 6 -265 18
-13 3 -40 8 -60 11 -68 10 -246 63 -340 100 -486 194 -867 574 -1066 1063 -20
48 -38 98 -40 111 -3 14 -7 28 -10 33 -5 8 -31 102 -38 140 -2 12 -7 34 -10
48 -3 14 -9 43 -12 65 -3 22 -7 51 -10 65 -3 19 -11 143 -16 240 0 3 0 7 1 10
1 3 3 50 6 105 13 309 129 658 307 921 29 44 56 81 60 82 5 2 8 10 8 17 0 7 3
15 8 17 4 2 30 30 57 63 236 281 566 498 913 599 48 14 98 27 112 30 14 2 45
9 70 15 57 13 113 20 220 27 47 4 86 8 88 9 3 2 141 -3 212 -9z"/>
<path d="M2043 3815 c-55 -14 -95 -41 -123 -83 -25 -36 -25 -41 -28 -263 l-3
-225 56 -18 c30 -9 59 -15 64 -11 5 3 12 2 15 -3 7 -12 58 -16 206 -16 137 0
216 8 236 25 6 5 13 6 17 3 7 -7 77 17 78 28 0 4 1 97 1 206 1 217 -5 250 -52
299 -56 57 -84 64 -265 66 -90 1 -181 -2 -202 -8z"/>
<path d="M1690 3196 c-36 -12 -86 -32 -110 -45 -25 -13 -56 -30 -70 -37 -45
-25 -126 -113 -153 -168 -43 -87 -66 -196 -68 -313 -1 -60 1 -67 32 -100 77
-80 220 -153 391 -198 89 -23 109 -27 188 -40 231 -36 545 -27 748 21 37 8 77
18 90 20 13 3 51 15 85 28 148 56 227 102 296 174 l43 46 -6 85 c-3 47 -8 97
-11 111 -3 14 -8 38 -10 54 -3 15 -12 41 -20 57 -8 15 -15 33 -15 38 0 34
-145 191 -176 191 -7 0 -14 3 -16 8 -4 9 -83 47 -120 57 -5 2 -10 4 -13 5 -3
1 -8 3 -12 5 -5 1 -15 4 -23 7 -42 16 -66 15 -103 -4 -121 -61 -231 -83 -417
-83 -111 1 -150 4 -225 19 -36 7 -119 37 -172 62 -61 28 -51 28 -133 0z"/>
<path d="M3105 2426 c-107 -112 -354 -207 -630 -243 -76 -9 -431 -10 -509 0
-261 32 -502 122 -625 233 l-52 47 5 -39 c3 -21 10 -86 16 -144 6 -58 13 -121
15 -140 2 -19 7 -64 10 -100 4 -36 8 -81 10 -100 2 -19 7 -66 11 -105 3 -38 8
-77 9 -85 2 -8 4 -24 4 -35 1 -22 87 -84 176 -128 50 -25 188 -72 235 -81 14
-3 39 -8 55 -11 17 -3 44 -8 60 -12 17 -4 39 -8 50 -9 160 -17 365 -23 365
-10 0 4 6 3 13 -3 8 -6 16 -9 18 -6 3 2 34 7 69 11 117 11 154 17 240 39 36 8
72 17 80 19 87 22 230 89 297 139 30 23 43 40 44 60 1 15 2 30 3 35 3 11 15
110 21 167 3 28 8 63 11 79 l6 30 -48 -43 c-83 -73 -243 -140 -437 -182 -70
-15 -110 -2 -105 34 2 17 15 25 58 38 48 15 167 45 210 54 30 7 160 63 204 89
50 29 125 100 127 119 0 7 2 21 3 32 2 11 6 47 10 80 3 33 9 76 11 95 7 49 15
130 12 129 -1 0 -24 -24 -52 -53z"/>
<path d="M1384 1553 c3 -21 8 -63 11 -93 9 -95 16 -164 21 -200 2 -19 6 -64 9
-100 11 -124 15 -144 40 -185 66 -114 287 -213 545 -243 69 -9 335 -8 415 0
237 25 475 131 539 241 14 23 27 62 30 87 3 25 8 74 12 109 l6 64 -33 -32
c-45 -43 -194 -115 -303 -146 -95 -27 -121 -26 -131 6 -11 35 17 53 115 74 50
11 155 52 220 86 98 51 150 100 151 142 2 52 17 183 24 205 6 18 -4 15 -39
-12 -97 -73 -295 -146 -476 -175 -179 -29 -470 -32 -600 -6 -13 2 -42 7 -64
11 -22 3 -43 7 -47 9 -3 2 -21 7 -40 10 -92 15 -276 91 -355 147 l-56 39 6
-38z"/>
</g>
</svg>
