<?xml version="1.0" encoding="utf-8"?>
<!-- Generator: Adobe Illustrator 19.1.0, SVG Export Plug-In . SVG Version: 6.00 Build 0)  -->
<svg version="1.1" id="Layer_1" xmlns="http://www.w3.org/2000/svg" xmlns:xlink="http://www.w3.org/1999/xlink" x="0px" y="0px"
	 viewBox="-245 46.8 468.2 468.2" style="enable-background:new -245 46.8 468.2 468.2;" xml:space="preserve">
<style type="text/css">
	.st0{fill:#FFFFFF;}
</style>
<path class="st0" d="M-10.9,46.8C-140.2,46.8-245,151.6-245,280.9S-140.2,515-10.9,515s234.1-104.8,234.1-234.1
	S118.4,46.8-10.9,46.8z M-11.9,477.8c-109.3,0-197.9-88.6-197.9-197.9S-121.2,82-11.9,82S186,170.6,186,279.9S97.4,477.8-11.9,477.8
	z"/>
<g>
	<path class="st0" d="M-14.1,278.3c46.9,0,86.4-14.1,97.9-33.3c-1-34.5-8.7-54.2-50-65.4c-11.7,7.1-28.5,11.5-47.1,11.5
		c-18.7,0-35.6-4.5-47.3-11.6c-42.3,11.4-49.7,31.6-50.4,67.3C-98.1,265-59.6,278.3-14.1,278.3z"/>
	<path class="st0" d="M-13.2,182.5c12.9,0,24.9-2.1,35-5.8c-0.1,0-0.2,0-0.2-0.1v-39.2c0-11.2-9.2-20.5-20.5-20.5H-28
		c-11.2,0-20.5,9.2-20.5,20.5v39.2C-38.4,180.4-26.3,182.5-13.2,182.5z"/>
	<path class="st0" d="M-111,254.1"/>
	<path class="st0" d="M-100,206.6"/>
	<path class="st0" d="M-100,206.6"/>
	<path class="st0" d="M-47,176.2"/>
	<path class="st0" d="M-13.8,363.3c38.7,0,72.1-10.3,88-25.2l4.1-34.9c-8.2,11-28.5,20-54.9,24.5c-3.3,0.1-6.2-1.6-6.5-4
		c-0.3-2,1.3-3.9,3.7-4.8c29.3-4.6,51.6-14.6,59-26.9l4.2-35.9c-11.7,19.1-51.1,33.1-97.8,33.1c-45.1,0-83.3-13.1-96.5-31.1
		l8.2,79.6C-86.6,352.8-52.9,363.3-13.8,363.3z"/>
	<path class="st0" d="M24.5,407.8c-2.6,0.1-4.8-1.4-5.3-3.6c-0.4-2.3,1.2-4.5,3.7-5.3c22.1-4.7,39.1-12.7,46.8-22.3l3.1-26.4
		c-16.5,14.2-49.1,23.9-86.6,23.9c-38,0-71-10-87.3-24.5l5.6,54.5c0,19.9,36.3,36,81,36s81-16.1,81-36l2-16.8
		C60.5,396,44.7,403.3,24.5,407.8z"/>
</g>
</svg>
