<svg id="Layer_1" xmlns="http://www.w3.org/2000/svg" viewBox="-245 46.8 468.2 468.2"><style>.st0{fill:#fff}</style><path class="st0" d="M-10.9 46.8C-140.2 46.8-245 151.6-245 280.9S-140.2 515-10.9 515s234.1-104.8 234.1-234.1S118.4 46.8-10.9 46.8zm-1 431c-109.3 0-197.9-88.6-197.9-197.9S-121.2 82-11.9 82 186 170.6 186 279.9 97.4 477.8-11.9 477.8z"/><g><path class="st0" d="M-14.1 278.3c46.9 0 86.4-14.1 97.9-33.3-1-34.5-8.7-54.2-50-65.4-11.7 7.1-28.5 11.5-47.1 11.5-18.7 0-35.6-4.5-47.3-11.6-42.3 11.4-49.7 31.6-50.4 67.3 12.9 18.2 51.4 31.5 96.9 31.5z"/><path class="st0" d="M-13.2 182.5c12.9 0 24.9-2.1 35-5.8-.1 0-.2 0-.2-.1v-39.2c0-11.2-9.2-20.5-20.5-20.5H-28c-11.2 0-20.5 9.2-20.5 20.5v39.2c10.1 3.8 22.2 5.9 35.3 5.9zM-13.8 363.3c38.7 0 72.1-10.3 88-25.2l4.1-34.9c-8.2 11-28.5 20-54.9 24.5-3.3.1-6.2-1.6-6.5-4-.3-2 1.3-3.9 3.7-4.8 29.3-4.6 51.6-14.6 59-26.9l4.2-35.9c-11.7 19.1-51.1 33.1-97.8 33.1-45.1 0-83.3-13.1-96.5-31.1l8.2 79.6c15.7 15.1 49.4 25.6 88.5 25.6z"/><path class="st0" d="M24.5 407.8c-2.6.1-4.8-1.4-5.3-3.6-.4-2.3 1.2-4.5 3.7-5.3 22.1-4.7 39.1-12.7 46.8-22.3l3.1-26.4c-16.5 14.2-49.1 23.9-86.6 23.9-38 0-71-10-87.3-24.5l5.6 54.5c0 19.9 36.3 36 81 36s81-16.1 81-36l2-16.8c-8 8.7-23.8 16-44 20.5z"/></g></svg>